<?xml version="1.0" standalone="no"?>
<!DOCTYPE svg PUBLIC "-//W3C//DTD SVG 20010904//EN"
 "http://www.w3.org/TR/2001/REC-SVG-20010904/DTD/svg10.dtd">
<svg version="1.0" xmlns="http://www.w3.org/2000/svg"
 width="800.000000pt" height="800.000000pt" viewBox="0 0 800.000000 800.000000"
 preserveAspectRatio="xMidYMid meet">
<metadata>
Created by potrace 1.14, written by Peter Selinger 2001-2017
</metadata>
<g transform="translate(0.000000,800.000000) scale(0.100000,-0.100000)"
fill="#000000" stroke="none">
<path d="M827 7284 c-1 -2 -14 -5 -27 -7 -82 -15 -165 -80 -206 -161 -40 -77
-39 -191 1 -391 12 -61 68 -210 102 -274 114 -210 280 -373 477 -465 33 -16
64 -29 70 -30 6 -1 16 -5 22 -9 39 -24 233 -56 379 -61 87 -3 146 -20 183 -50
33 -29 74 -102 93 -168 7 -27 17 -48 21 -48 4 0 8 -4 8 -10 0 -19 36 -52 82
-76 43 -22 60 -24 172 -24 94 0 136 4 168 17 78 30 131 108 130 193 0 90 -81
297 -163 417 -52 75 -189 203 -218 203 -6 0 -11 4 -11 8 0 9 -123 65 -180 83
-82 24 -161 36 -260 38 -50 1 -100 5 -113 7 -12 3 -39 9 -59 13 -112 24 -222
114 -282 234 -33 64 -42 91 -61 171 -2 10 -7 53 -10 95 -7 98 -40 167 -106
224 -27 23 -51 41 -54 39 -3 -1 -19 5 -35 13 -17 9 -30 14 -30 12 0 -2 -20 -1
-45 3 -25 4 -46 6 -48 4z"/>
<path d="M2799 7273 c-146 -37 -230 -158 -223 -323 3 -74 8 -121 19 -170 3
-14 7 -37 10 -52 8 -45 66 -199 97 -263 101 -201 264 -367 456 -465 70 -35
190 -78 242 -86 19 -3 42 -7 50 -9 20 -6 121 -15 212 -19 89 -5 123 -13 165
-40 35 -23 80 -100 107 -182 19 -59 77 -122 128 -140 43 -16 273 -16 315 -1
38 15 103 67 103 84 0 7 4 13 9 13 11 0 24 55 24 105 0 57 -49 206 -99 302
-64 125 -158 237 -242 290 -15 10 -29 20 -32 23 -14 14 -176 88 -205 93 -11 2
-27 7 -35 10 -31 11 -114 21 -280 31 -131 9 -213 41 -293 115 -104 97 -158
229 -172 422 -11 151 -121 256 -287 274 -9 1 -40 -5 -69 -12z"/>
<path d="M695 4949 c-125 -17 -213 -46 -300 -99 -98 -60 -137 -91 -190 -152
-27 -32 -55 -64 -61 -71 -44 -49 -114 -216 -133 -317 -9 -51 -8 -300 2 -317 3
-4 7 -30 11 -58 5 -44 48 -262 61 -307 3 -10 7 -28 10 -40 3 -13 19 -68 36
-123 182 -581 542 -1119 1036 -1546 58 -51 232 -188 280 -220 26 -18 53 -37
58 -42 11 -9 74 -50 175 -113 66 -42 158 -94 264 -149 58 -31 60 -32 77 -97
39 -142 110 -261 215 -363 60 -58 207 -155 236 -155 8 0 18 -4 24 -9 15 -13
129 -42 192 -48 83 -8 2577 -7 2640 1 98 13 233 62 312 113 171 112 280 259
334 451 l21 74 85 45 c93 49 272 153 280 162 6 8 41 29 60 38 8 4 17 9 20 12
3 3 32 24 65 46 33 22 62 42 65 45 3 3 21 17 40 30 19 13 37 27 40 30 3 3 34
28 70 55 36 28 77 61 92 75 14 14 50 46 80 72 96 84 262 254 343 352 22 26 45
53 50 59 73 84 231 315 301 437 113 201 218 438 279 630 29 94 81 296 89 350
3 19 8 46 11 60 3 14 7 43 10 65 3 22 9 64 14 94 9 58 7 269 -3 312 -3 14 -12
45 -20 68 -9 22 -13 41 -11 41 2 0 -11 28 -28 63 -116 226 -285 366 -518 428
l-84 23 -3290 0 c-1809 1 -3312 -2 -3340 -5z m6614 -602 c31 -15 55 -38 75
-71 26 -41 29 -56 28 -114 -1 -75 -3 -87 -26 -222 -11 -61 -26 -132 -30 -138
-5 -9 -6702 -9 -6710 -1 -9 8 -36 151 -50 259 -14 104 -14 149 -1 174 8 14 12
26 9 26 -3 0 7 15 21 34 40 52 86 70 195 76 52 3 1523 4 3269 3 l3174 -2 46
-24z m-182 -1140 c6 -7 -98 -183 -167 -283 -114 -164 -191 -255 -350 -414
-101 -101 -199 -189 -283 -252 -12 -9 -35 -28 -52 -41 -149 -118 -436 -286
-686 -400 -130 -59 -161 -104 -165 -237 -2 -47 -5 -102 -8 -123 -7 -50 -55
-109 -108 -135 -42 -20 -58 -20 -1308 -21 -1183 0 -1267 1 -1302 18 -37 17
-107 86 -109 106 0 6 -2 19 -4 30 -2 11 -5 59 -6 107 -3 144 -36 194 -168 255
-178 82 -367 184 -473 255 -31 21 -61 38 -67 38 -5 0 -11 3 -13 8 -1 4 -34 30
-73 57 -74 52 -76 53 -115 86 -14 12 -41 33 -60 48 -83 63 -311 286 -385 376
-22 27 -47 56 -55 65 -42 43 -230 318 -253 370 -4 8 -16 29 -26 45 -11 17 -20
33 -20 37 -1 4 23 8 52 10 82 5 6199 -1 6204 -5z"/>
</g>
</svg>
